<?xml version="1.0" encoding="utf-8"?>
<!-- Generator: Adobe Illustrator 16.0.0, SVG Export Plug-In . SVG Version: 6.00 Build 0)  -->
<!DOCTYPE svg PUBLIC "-//W3C//DTD SVG 1.1//EN" "http://www.w3.org/Graphics/SVG/1.1/DTD/svg11.dtd">
<svg version="1.1" id="Capa_1" xmlns="http://www.w3.org/2000/svg" xmlns:xlink="http://www.w3.org/1999/xlink" x="0px" y="0px"
	 width="57px" height="27px" viewBox="0 0 57 27" enable-background="new 0 0 57 27" xml:space="preserve">
<path opacity="0.5" d="M13.67,0.83C6.672,0.83,1,6.502,1,13.5c0,6.997,5.672,12.67,12.67,12.67c6.997,0,12.669-5.674,12.669-12.67
	C26.339,6.502,20.667,0.83,13.67,0.83z M16.696,20.338c-0.344,0.361-0.806,0.545-1.27,0.545c-0.433,0-0.866-0.16-1.205-0.48
	L8.288,14.77c-0.35-0.332-0.547-0.794-0.545-1.276c0.002-0.483,0.203-0.943,0.555-1.272l5.934-5.549
	c0.707-0.66,1.814-0.623,2.474,0.083c0.66,0.706,0.623,1.813-0.083,2.474l-4.577,4.281l4.587,4.354
	C17.333,18.529,17.361,19.637,16.696,20.338z"/>
<path opacity="0.5" d="M30.66,13.5c0,6.997,5.672,12.67,12.669,12.67s12.67-5.674,12.67-12.67c0-6.997-5.673-12.669-12.67-12.669
	S30.66,6.502,30.66,13.5z M40.367,17.863l4.587-4.354l-4.577-4.281c-0.706-0.66-0.743-1.768-0.083-2.474
	c0.659-0.706,1.767-0.743,2.474-0.083l5.934,5.549c0.352,0.33,0.553,0.79,0.555,1.272c0.002,0.481-0.195,0.944-0.545,1.276
	l-5.934,5.633c-0.339,0.32-0.771,0.48-1.205,0.48c-0.463,0-0.926-0.184-1.27-0.545C39.638,19.637,39.666,18.529,40.367,17.863z"/>
</svg>
