<?xml version="1.0" encoding="utf-8"?>
<!-- Generator: Adobe Illustrator 16.0.0, SVG Export Plug-In . SVG Version: 6.00 Build 0)  -->
<!DOCTYPE svg PUBLIC "-//W3C//DTD SVG 1.1//EN" "http://www.w3.org/Graphics/SVG/1.1/DTD/svg11.dtd">
<svg version="1.1" id="Capa_1" xmlns="http://www.w3.org/2000/svg" xmlns:xlink="http://www.w3.org/1999/xlink" x="0px" y="0px"
	 width="176px" height="70px" viewBox="0 0 176 70" enable-background="new 0 0 176 70" xml:space="preserve">
<g>
	<path fill="#FFFFFF" d="M118.018,11.193c-7.938,0-14.265,6.728-14.265,14.667c0,7.94,6.326,14.668,14.265,14.668
		c8.345,0,14.803-6.728,14.803-14.668C132.82,17.921,126.362,11.193,118.018,11.193L118.018,11.193z M132.82,45.509
		c-4.172,3.365-9.824,4.847-14.398,4.847h14.398V45.509z M159.466,2.849h12.514v47.505h-12.514V2.849z M146.277,2.849h-19.514
		c9.02,2.962,15.074,12.113,15.748,20.322c0,2.69,0,27.185,0,27.185h12.513V20.882C154.215,13.347,151.932,7.695,146.277,2.849
		L146.277,2.849z M82.625,24.784c0.672-6.729,2.258-17.395,8.855-21.937h17.952c-8.406,3.935-14.384,9.984-15.505,24.896
		c-1.037,13.818-12.814,22.61-23.959,22.61c-8.453,0-16.008-3.365-20.854-9.018c-4.575,5.653-11.707,9.018-19.244,9.018
		c-13.189,0-25.301-11.305-25.301-23.417c0,0,0-3.364,0-24.088h11.304v24.088c0.808,7.268,6.729,12.515,13.997,12.515
		c7.537,0,13.591-6.46,13.591-13.995V2.849h11.306v24.089c0.672,7.269,6.056,12.516,14.533,12.516
		C77.107,39.453,81.816,33.398,82.625,24.784z"/>
	<g>
		<path fill="#FFFFFF" d="M24.776,64.485h-2.887l-0.76,2.448h-1.106l2.757-8.513h1.128l2.756,8.513h-1.117L24.776,64.485z
			 M23.333,59.589c0,0-0.174,0.773-0.305,1.205l-0.858,2.704h2.323l-0.848-2.704c-0.131-0.432-0.293-1.205-0.293-1.205H23.333z"/>
		<path fill="#FFFFFF" d="M27.794,58.421h2.344c0.803,0,1.139,0.071,1.433,0.192c0.781,0.325,1.291,1.18,1.291,2.303
			c0,1.085-0.542,2.002-1.378,2.304v0.025c0,0,0.088,0.107,0.228,0.384l1.628,3.305h-1.216l-1.616-3.389h-1.64v3.389h-1.074V58.421z
			 M30.409,62.508c0.836,0,1.355-0.59,1.355-1.544c0-0.629-0.216-1.073-0.607-1.313c-0.207-0.121-0.455-0.193-1.053-0.193h-1.237
			v3.051H30.409z"/>
		<path fill="#FFFFFF" d="M38.17,58.275c2.226,0,3.938,1.893,3.938,4.354c0,1.073-0.347,2.062-0.899,2.81l0.911,0.965l-0.629,0.748
			l-0.889-0.989c-0.662,0.59-1.498,0.916-2.431,0.916c-2.212,0-3.929-1.966-3.929-4.449C34.24,60.168,35.957,58.275,38.17,58.275z
			 M38.17,65.983c0.576,0,1.216-0.23,1.661-0.629l-0.9-0.977l0.629-0.749l0.878,0.989c0.347-0.531,0.564-1.241,0.564-1.989
			c0-1.879-1.237-3.269-2.833-3.269c-1.585,0-2.821,1.39-2.821,3.269C35.348,64.534,36.585,65.983,38.17,65.983z"/>
		<path fill="#FFFFFF" d="M43.685,58.421h1.072v5.499c0,1.3,0.76,2.062,1.933,2.062c1.183,0,1.954-0.762,1.954-2.087v-5.474h1.074
			v5.499c0,1.893-1.225,3.159-3.017,3.159c-1.791,0-3.016-1.267-3.016-3.159V58.421z"/>
		<path fill="#FFFFFF" d="M51.695,58.421h1.074v8.512h-1.074V58.421z"/>
		<path fill="#FFFFFF" d="M56.491,59.457h-2.626v-1.036h6.326v1.036h-2.626v7.477H56.49L56.491,59.457L56.491,59.457z"/>
		<path fill="#FFFFFF" d="M61.289,58.421h4.449v1.036h-3.375v2.665h2.746v1.037h-2.746v2.737h3.56v1.037h-4.634V58.421z"/>
		<path fill="#FFFFFF" d="M70.83,58.275c1.846,0,2.79,1.12,2.79,1.12l-0.532,0.893c0,0-0.889-0.929-2.213-0.929
			c-1.715,0-2.832,1.448-2.832,3.257c0,1.821,1.14,3.365,2.842,3.365c1.444,0,2.366-1.111,2.366-1.111l0.576,0.859
			c0,0-1.053,1.349-2.972,1.349c-2.301,0-3.919-1.953-3.919-4.449C66.933,60.155,68.604,58.275,70.83,58.275z"/>
		<path fill="#FFFFFF" d="M76.929,59.457h-2.625v-1.036h6.325v1.036h-2.626v7.477h-1.075L76.929,59.457L76.929,59.457z"/>
		<path fill="#FFFFFF" d="M81.619,58.421h1.074v5.499c0,1.3,0.758,2.062,1.932,2.062c1.183,0,1.953-0.762,1.953-2.087v-5.474h1.075
			v5.499c0,1.893-1.226,3.159-3.017,3.159c-1.791,0-3.017-1.267-3.017-3.159V58.421L81.619,58.421z"/>
		<path fill="#FFFFFF" d="M89.63,58.421h2.344c0.803,0,1.138,0.071,1.433,0.192c0.78,0.325,1.292,1.18,1.292,2.303
			c0,1.085-0.542,2.002-1.379,2.304v0.025c0,0,0.087,0.107,0.229,0.384l1.627,3.305H93.96l-1.619-3.389h-1.638v3.389H89.63V58.421z
			 M92.244,62.508c0.837,0,1.356-0.59,1.356-1.544c0-0.629-0.217-1.073-0.607-1.313c-0.207-0.121-0.456-0.193-1.052-0.193h-1.238
			v3.051H92.244z"/>
		<path fill="#FFFFFF" d="M100.385,64.485h-2.887l-0.76,2.448h-1.106l2.757-8.513h1.127l2.758,8.513h-1.117L100.385,64.485z
			 M98.94,59.589c0,0-0.174,0.773-0.305,1.205l-0.856,2.704h2.322l-0.846-2.704c-0.13-0.432-0.293-1.205-0.293-1.205H98.94z"/>
		<path fill="#FFFFFF" d="M107.081,62.364v-0.026c0,0-1.008-0.384-1.008-1.867c0-1.411,0.996-2.195,2.354-2.195
			c0.425,0,0.933,0.132,0.933,0.132l-0.268,0.952c0,0-0.318-0.072-0.579-0.072c-0.759,0-1.354,0.471-1.354,1.3
			c0,0.534,0.228,1.34,1.409,1.34h1.42V60.77h1.056v1.157h1.02v1.039h-1.02v1.133c0,1.895-1.011,2.979-2.649,2.979
			c-1.596,0-2.659-1.097-2.659-2.533C105.736,63.604,106.236,62.679,107.081,62.364z M108.395,65.983
			c0.977,0,1.594-0.592,1.594-1.932v-1.085h-1.465c-1.084,0-1.69,0.566-1.69,1.519C106.833,65.306,107.439,65.983,108.395,65.983z"
			/>
		<path fill="#FFFFFF" d="M116.406,58.421h2.539c2.343,0,3.883,1.555,3.883,4.243c0,2.701-1.54,4.269-3.883,4.269h-2.539V58.421z
			 M118.868,65.896c1.726,0,2.855-1.134,2.855-3.231c0-2.085-1.141-3.208-2.855-3.208h-1.389v6.439H118.868z"/>
		<path fill="#FFFFFF" d="M124.438,58.421h1.073v8.512h-1.073V58.421z"/>
		<path fill="#FFFFFF" d="M127.618,65.054c0,0,0.813,0.916,1.954,0.916c0.715,0,1.323-0.445,1.323-1.255
			c0-1.846-3.712-1.446-3.712-4.062c0-1.328,1.031-2.377,2.474-2.377c1.423,0,2.172,0.856,2.172,0.856l-0.489,0.989
			c0,0-0.704-0.737-1.683-0.737c-0.813,0-1.388,0.566-1.388,1.243c0,1.76,3.71,1.291,3.71,4.052c0,1.314-0.911,2.4-2.429,2.4
			c-1.631,0-2.541-1.121-2.541-1.121L127.618,65.054z"/>
		<path fill="#FFFFFF" d="M133.521,58.421h4.45v1.036h-3.375v2.665h2.744v1.037h-2.744v2.737h3.559v1.037h-4.634V58.421z"/>
		<path fill="#FFFFFF" d="M139.742,58.421h1.062l3.408,5.533c0.282,0.459,0.64,1.23,0.64,1.23h0.021c0,0-0.076-0.758-0.076-1.23
			v-5.533h1.076v8.512h-1.053l-3.419-5.524c-0.282-0.47-0.639-1.241-0.639-1.241h-0.022c0,0,0.077,0.76,0.077,1.241v5.524h-1.075
			V58.421z M142.085,56.287c0.728,0,0.9,0.82,1.366,0.82c0.326,0,0.423-0.435,0.423-0.786h0.761c0,1.001-0.368,1.533-1.105,1.533
			c-0.728,0-0.9-0.821-1.367-0.821c-0.326,0-0.424,0.422-0.424,0.785h-0.759C140.979,56.804,141.347,56.287,142.085,56.287z"/>
		<path fill="#FFFFFF" d="M151.375,58.275c2.213,0,3.93,1.893,3.93,4.341c0,2.509-1.716,4.462-3.93,4.462
			c-2.215,0-3.938-1.953-3.938-4.462C147.437,60.168,149.162,58.275,151.375,58.275z M151.375,65.983c1.561,0,2.82-1.448,2.82-3.366
			c0-1.858-1.26-3.257-2.82-3.257c-1.562,0-2.833,1.398-2.833,3.257C148.542,64.534,149.812,65.983,151.375,65.983z"/>
	</g>
	<g>
		<rect x="157.851" y="61.062" fill="#FFFFFF" width="14.256" height="2.437"/>
	</g>
	<g>
		<rect x="4.221" y="61.062" fill="#FFFFFF" width="14.256" height="2.437"/>
	</g>
</g>
</svg>
